# xmcd
#
# Track frame offsets:
#	150
#	28326
#	35319
#	42682
#	53738
#	82713
#	115830
#	163670
#	187793
#	211898
#	253757
#
# Disc length: 3744 seconds
#
# Revision: 1
# Processed by: cddbd v1.5.1PL2 Copyright (c) Steve Scherf et al.
# Submitted via: EasyCDDAExtractor 9.0.0.1
#
DISCID=8b0e9e0b
DTITLE=Alice Cooper - Ernst Merck Halle Hamburg 19-11-72
DYEAR=1972
DGENRE=Hard Rock
TTITLE0=Intro - Public Animal #9
TTITLE1=Caught In A Dream
TTITLE2=Under My Wheels
TTITLE3=Be My Lover
TTITLE4=I'm Eighteen
TTITLE5=Is It My Body - My Very Own
TTITLE6=Halo Of Flies
TTITLE7=Gutter Cat Vs The Jets 
TTITLE8=Street Fight
TTITLE9=Killer 
TTITLE10=School's Out
EXTD=
EXTT0=
EXTT1=
EXTT2=
EXTT3=
EXTT4=
EXTT5=
EXTT6=
EXTT7=
EXTT8=
EXTT9=
EXTT10=
PLAYORDER=
